# xmcd
# 
# Track frame offsets:
#     150
#     24601
#     45431
#     66484
#     88864
#     111950
#     139201
#     162594
#     191707
#     210348
# 
# Disc length: 3078
# 
# Revision: 1
# Processed by: cddbd v1.5.2PL0 Copyright (c) Steve Scherf et al.
# Submitted via: BonkEnc v1.0.8
# 
DISCID=920c040a
DTITLE=篠原美也子 - radiant
DYEAR=2006
DGENRE=JPop
TTITLE0=limit
TTITLE1=Stand and Fight
TTITLE2=願わくば
TTITLE3=感情
TTITLE4=彼女
TTITLE5=エール
TTITLE6=星に願いを
TTITLE7=逆光
TTITLE8=another moon
TTITLE9=afterglow
EXTD=YEAR: 2006
EXTT0=
EXTT1=
EXTT2=
EXTT3=
EXTT4=
EXTT5=
EXTT6=
EXTT7=
EXTT8=
EXTT9=
PLAYORDER=
